<svg width="148" height="39" viewBox="0 0 148 39" fill="none" xmlns="http://www.w3.org/2000/svg">
<path d="M16.554 11.7087L12.0651 20.9345C11.6037 21.8839 10.6456 22.493 9.58107 22.493H0L5.83736 11.6908L16.554 11.7087L20.9187 2.78742C21.5042 1.58717 22.7107 0.834778 24.0237 0.834778H43.1858L37.3484 11.7087H16.554ZM26.9512 27.8673L32.7886 16.9934H24.0237C22.7107 16.9934 21.5042 17.7458 20.9187 18.946L16.554 27.8673H5.83736L0 38.6695H9.59882C10.6456 38.6695 11.6215 38.0605 12.0828 37.111L16.554 27.8852L26.9512 27.8673Z" fill="#F6AD55"/>
<path d="M52.5264 7.82117H65.5141L64.7156 11.5294H54.9749L53.999 16.1692H62.5155L61.7881 19.5908H53.3071L51.5505 27.8851H47.1858L51.1424 8.96767C51.2666 8.28694 51.8522 7.82117 52.5264 7.82117Z" fill="#1A202C"/>
<path d="M65.9044 13.3568H69.8787L66.827 27.8852H62.8526L65.9044 13.3568ZM70.3223 11.0996H66.3479L66.827 8.932C66.9689 8.26917 67.5544 7.80341 68.2109 7.80341H71.0497L70.3223 11.0996Z" fill="#1A202C"/>
<path d="M73.8531 13.3568H76.479L76.0355 15.3811H76.0887C77.3662 13.7868 79.0695 12.9627 81.1276 12.9627C83.86 12.9627 85.3327 14.3421 85.3327 16.868C85.3327 17.4592 85.031 18.8565 84.9068 19.376L83.1326 27.8852H79.1759L80.9325 19.376C81.0389 18.946 81.1809 17.9966 81.1809 17.6025C81.1809 16.7247 80.205 16.1156 79.2824 16.1156C76.8871 16.1156 75.6629 18.1399 75.2548 20.1642L73.6402 27.8852H69.6836L72.4514 14.5033C72.5934 13.8226 73.1789 13.3568 73.8531 13.3568Z" fill="#1A202C"/>
<path d="M91.6668 7.82129H104.654L103.856 11.5295H94.1153L93.1395 16.1693H101.656L100.929 19.5909H92.4475L90.691 27.8852H86.3085L90.2651 8.9678C90.4071 8.28706 90.9926 7.82129 91.6668 7.82129Z" fill="#1A202C"/>
<path d="M107.351 7.82129H110.155L105.932 27.8852H101.975L105.967 8.9678C106.109 8.28706 106.677 7.82129 107.351 7.82129Z" fill="#1A202C"/>
<path d="M117.536 12.9627C121.492 12.9627 124.242 14.9333 124.242 19.1073C124.242 24.2128 121.102 28.2614 115.868 28.2614C111.858 28.2614 109.268 26.1475 109.268 21.9915C109.268 17.083 112.426 12.9627 117.536 12.9627ZM116.063 25.2518C119.008 25.2518 120.286 21.5973 120.286 19.161C120.286 17.2263 119.452 15.9544 117.394 15.9544C114.502 15.9544 113.224 19.5551 113.224 21.9915C113.224 23.7112 114.2 25.2518 116.063 25.2518Z" fill="#1A202C"/>
<path d="M140.459 27.8673H136.343L135.846 17.6741H135.793L131.34 27.8673H127.188L125.609 13.3389H128.306C129.051 13.3389 129.69 13.9301 129.725 14.7004L130.204 23.5679H130.257L134.675 13.3389H138.685L139.129 23.4783H139.182L143.422 14.163C143.653 13.6614 144.15 13.321 144.718 13.321H147.982L140.459 27.8673Z" fill="#1A202C"/>
</svg>
