<svg width="128" height="38" viewBox="0 0 128 38" fill="none" xmlns="http://www.w3.org/2000/svg">
<path d="M31.0069 10.6875H6.99305C6.50314 10.6875 6.03329 10.8821 5.68687 11.2285C5.34045 11.575 5.14583 12.0448 5.14583 12.5347V25.4653C5.14583 25.9552 5.34045 26.425 5.68687 26.7715C6.03329 27.1179 6.50314 27.3125 6.99305 27.3125H31.0069C31.4969 27.3125 31.9667 27.1179 32.3131 26.7715C32.6595 26.425 32.8542 25.9552 32.8542 25.4653V12.5347C32.8542 12.0448 32.6595 11.575 32.3131 11.2285C31.9667 10.8821 31.4969 10.6875 31.0069 10.6875ZM12.8811 25.4653L6.99305 20.4201V17.5799L12.8811 12.5347H25.1189L31.0069 17.5799V20.4201L25.1189 25.4653H12.8811ZM23.618 19C23.618 19.9134 23.3472 20.8062 22.8398 21.5657C22.3323 22.3251 21.6111 22.917 20.7672 23.2665C19.9234 23.6161 18.9949 23.7075 18.0991 23.5293C17.2032 23.3511 16.3804 22.9113 15.7345 22.2655C15.0887 21.6196 14.6489 20.7968 14.4707 19.9009C14.2925 19.0051 14.3839 18.0766 14.7335 17.2327C15.083 16.3889 15.6749 15.6677 16.4343 15.1602C17.1938 14.6528 18.0866 14.3819 19 14.3819C20.2248 14.3819 21.3994 14.8685 22.2655 15.7345C23.1315 16.6006 23.618 17.7752 23.618 19Z" fill="#F6AD55"/>
<path d="M54.8008 24.2344V9H58.1992V27H55.1406L54.8008 24.2344ZM46.7852 20.8125V20.5664C46.7852 19.5977 46.8945 18.7188 47.1133 17.9297C47.332 17.1328 47.6523 16.4492 48.0742 15.8789C48.4961 15.3086 49.0156 14.8672 49.6328 14.5547C50.25 14.2422 50.9531 14.0859 51.7422 14.0859C52.4844 14.0859 53.1328 14.2422 53.6875 14.5547C54.25 14.8672 54.7266 15.3125 55.1172 15.8906C55.5156 16.4609 55.8359 17.1367 56.0781 17.918C56.3203 18.6914 56.4961 19.5391 56.6055 20.4609V21C56.4961 21.8828 56.3203 22.7031 56.0781 23.4609C55.8359 24.2188 55.5156 24.8828 55.1172 25.4531C54.7266 26.0156 54.25 26.4531 53.6875 26.7656C53.125 27.0781 52.4688 27.2344 51.7188 27.2344C50.9297 27.2344 50.2266 27.0742 49.6094 26.7539C49 26.4336 48.4844 25.9844 48.0625 25.4062C47.6484 24.8281 47.332 24.1484 47.1133 23.3672C46.8945 22.5859 46.7852 21.7344 46.7852 20.8125ZM50.1602 20.5664V20.8125C50.1602 21.3359 50.1992 21.8242 50.2773 22.2773C50.3633 22.7305 50.5 23.1328 50.6875 23.4844C50.8828 23.8281 51.1328 24.0977 51.4375 24.293C51.75 24.4805 52.1289 24.5742 52.5742 24.5742C53.1523 24.5742 53.6289 24.4453 54.0039 24.1875C54.3789 23.9219 54.6641 23.5586 54.8594 23.0977C55.0625 22.6367 55.1797 22.1055 55.2109 21.5039V19.9688C55.1875 19.4766 55.1172 19.0352 55 18.6445C54.8906 18.2461 54.7266 17.9062 54.5078 17.625C54.2969 17.3438 54.0312 17.125 53.7109 16.9688C53.3984 16.8125 53.0273 16.7344 52.5977 16.7344C52.1602 16.7344 51.7852 16.8359 51.4727 17.0391C51.1602 17.2344 50.9062 17.5039 50.7109 17.8477C50.5234 18.1914 50.3828 18.5977 50.2891 19.0664C50.2031 19.5273 50.1602 20.0273 50.1602 20.5664ZM64.2109 17.0859V27H60.8359V14.3203H64.0117L64.2109 17.0859ZM68.0312 14.2383L67.9727 17.3672C67.8086 17.3438 67.6094 17.3242 67.375 17.3086C67.1484 17.2852 66.9414 17.2734 66.7539 17.2734C66.2773 17.2734 65.8633 17.3359 65.5117 17.4609C65.168 17.5781 64.8789 17.7539 64.6445 17.9883C64.418 18.2227 64.2461 18.5078 64.1289 18.8438C64.0195 19.1797 63.957 19.5625 63.9414 19.9922L63.2617 19.7812C63.2617 18.9609 63.3438 18.207 63.5078 17.5195C63.6719 16.8242 63.9102 16.2188 64.2227 15.7031C64.543 15.1875 64.9336 14.7891 65.3945 14.5078C65.8555 14.2266 66.3828 14.0859 66.9766 14.0859C67.1641 14.0859 67.3555 14.1016 67.5508 14.1328C67.7461 14.1562 67.9062 14.1914 68.0312 14.2383ZM76.0703 24.1406V18.4922C76.0703 18.0859 76.0039 17.7383 75.8711 17.4492C75.7383 17.1523 75.5312 16.9219 75.25 16.7578C74.9766 16.5938 74.6211 16.5117 74.1836 16.5117C73.8086 16.5117 73.4844 16.5781 73.2109 16.7109C72.9375 16.8359 72.7266 17.0195 72.5781 17.2617C72.4297 17.4961 72.3555 17.7734 72.3555 18.0938H68.9805C68.9805 17.5547 69.1055 17.043 69.3555 16.5586C69.6055 16.0742 69.9688 15.6484 70.4453 15.2812C70.9219 14.9062 71.4883 14.6133 72.1445 14.4023C72.8086 14.1914 73.5508 14.0859 74.3711 14.0859C75.3555 14.0859 76.2305 14.25 76.9961 14.5781C77.7617 14.9062 78.3633 15.3984 78.8008 16.0547C79.2461 16.7109 79.4688 17.5312 79.4688 18.5156V23.9414C79.4688 24.6367 79.5117 25.207 79.5977 25.6523C79.6836 26.0898 79.8086 26.4727 79.9727 26.8008V27H76.5625C76.3984 26.6562 76.2734 26.2266 76.1875 25.7109C76.1094 25.1875 76.0703 24.6641 76.0703 24.1406ZM76.5156 19.2773L76.5391 21.1875H74.6523C74.207 21.1875 73.8203 21.2383 73.4922 21.3398C73.1641 21.4414 72.8945 21.5859 72.6836 21.7734C72.4727 21.9531 72.3164 22.1641 72.2148 22.4062C72.1211 22.6484 72.0742 22.9141 72.0742 23.2031C72.0742 23.4922 72.1406 23.7539 72.2734 23.9883C72.4062 24.2148 72.5977 24.3945 72.8477 24.5273C73.0977 24.6523 73.3906 24.7148 73.7266 24.7148C74.2344 24.7148 74.6758 24.6133 75.0508 24.4102C75.4258 24.207 75.7148 23.957 75.918 23.6602C76.1289 23.3633 76.2383 23.082 76.2461 22.8164L77.1367 24.2461C77.0117 24.5664 76.8398 24.8984 76.6211 25.2422C76.4102 25.5859 76.1406 25.9102 75.8125 26.2148C75.4844 26.5117 75.0898 26.7578 74.6289 26.9531C74.168 27.1406 73.6211 27.2344 72.9883 27.2344C72.1836 27.2344 71.4531 27.0742 70.7969 26.7539C70.1484 26.4258 69.6328 25.9766 69.25 25.4062C68.875 24.8281 68.6875 24.1719 68.6875 23.4375C68.6875 22.7734 68.8125 22.1836 69.0625 21.668C69.3125 21.1523 69.6797 20.7188 70.1641 20.3672C70.6562 20.0078 71.2695 19.7383 72.0039 19.5586C72.7383 19.3711 73.5898 19.2773 74.5586 19.2773H76.5156ZM85.4453 8.98828V27H82.0703V8.98828H85.4453ZM93.4375 14.3203L87.9297 20.6016L84.9766 23.5898L83.7461 21.1523L86.0898 18.1758L89.3828 14.3203H93.4375ZM89.9336 27L86.1836 21.1406L88.5156 19.1016L93.8242 27H89.9336ZM98.2656 16.9453V27H94.8789V14.3203H98.0547L98.2656 16.9453ZM97.7969 20.2148H96.8594C96.8594 19.332 96.9648 18.5195 97.1758 17.7773C97.3945 17.0273 97.7109 16.3789 98.125 15.832C98.5469 15.2773 99.0664 14.8477 99.6836 14.543C100.301 14.2383 101.016 14.0859 101.828 14.0859C102.391 14.0859 102.906 14.1719 103.375 14.3438C103.844 14.5078 104.246 14.7695 104.582 15.1289C104.926 15.4805 105.191 15.9414 105.379 16.5117C105.566 17.0742 105.66 17.75 105.66 18.5391V27H102.285V18.9141C102.285 18.3359 102.207 17.8906 102.051 17.5781C101.895 17.2656 101.672 17.0469 101.383 16.9219C101.102 16.7969 100.762 16.7344 100.363 16.7344C99.9258 16.7344 99.543 16.8242 99.2148 17.0039C98.8945 17.1836 98.6289 17.4336 98.418 17.7539C98.207 18.0664 98.0508 18.4336 97.9492 18.8555C97.8477 19.2773 97.7969 19.7305 97.7969 20.2148ZM105.344 19.8281L104.137 19.9805C104.137 19.1523 104.238 18.3828 104.441 17.6719C104.652 16.9609 104.961 16.3359 105.367 15.7969C105.781 15.2578 106.293 14.8398 106.902 14.543C107.512 14.2383 108.215 14.0859 109.012 14.0859C109.621 14.0859 110.176 14.1758 110.676 14.3555C111.176 14.5273 111.602 14.8047 111.953 15.1875C112.312 15.5625 112.586 16.0547 112.773 16.6641C112.969 17.2734 113.066 18.0195 113.066 18.9023V27H109.68V18.9023C109.68 18.3164 109.602 17.8711 109.445 17.5664C109.297 17.2539 109.078 17.0391 108.789 16.9219C108.508 16.7969 108.172 16.7344 107.781 16.7344C107.375 16.7344 107.02 16.8164 106.715 16.9805C106.41 17.1367 106.156 17.3555 105.953 17.6367C105.75 17.918 105.598 18.2461 105.496 18.6211C105.395 18.9883 105.344 19.3906 105.344 19.8281ZM122.523 24.1406V18.4922C122.523 18.0859 122.457 17.7383 122.324 17.4492C122.191 17.1523 121.984 16.9219 121.703 16.7578C121.43 16.5938 121.074 16.5117 120.637 16.5117C120.262 16.5117 119.938 16.5781 119.664 16.7109C119.391 16.8359 119.18 17.0195 119.031 17.2617C118.883 17.4961 118.809 17.7734 118.809 18.0938H115.434C115.434 17.5547 115.559 17.043 115.809 16.5586C116.059 16.0742 116.422 15.6484 116.898 15.2812C117.375 14.9062 117.941 14.6133 118.598 14.4023C119.262 14.1914 120.004 14.0859 120.824 14.0859C121.809 14.0859 122.684 14.25 123.449 14.5781C124.215 14.9062 124.816 15.3984 125.254 16.0547C125.699 16.7109 125.922 17.5312 125.922 18.5156V23.9414C125.922 24.6367 125.965 25.207 126.051 25.6523C126.137 26.0898 126.262 26.4727 126.426 26.8008V27H123.016C122.852 26.6562 122.727 26.2266 122.641 25.7109C122.562 25.1875 122.523 24.6641 122.523 24.1406ZM122.969 19.2773L122.992 21.1875H121.105C120.66 21.1875 120.273 21.2383 119.945 21.3398C119.617 21.4414 119.348 21.5859 119.137 21.7734C118.926 21.9531 118.77 22.1641 118.668 22.4062C118.574 22.6484 118.527 22.9141 118.527 23.2031C118.527 23.4922 118.594 23.7539 118.727 23.9883C118.859 24.2148 119.051 24.3945 119.301 24.5273C119.551 24.6523 119.844 24.7148 120.18 24.7148C120.688 24.7148 121.129 24.6133 121.504 24.4102C121.879 24.207 122.168 23.957 122.371 23.6602C122.582 23.3633 122.691 23.082 122.699 22.8164L123.59 24.2461C123.465 24.5664 123.293 24.8984 123.074 25.2422C122.863 25.5859 122.594 25.9102 122.266 26.2148C121.938 26.5117 121.543 26.7578 121.082 26.9531C120.621 27.1406 120.074 27.2344 119.441 27.2344C118.637 27.2344 117.906 27.0742 117.25 26.7539C116.602 26.4258 116.086 25.9766 115.703 25.4062C115.328 24.8281 115.141 24.1719 115.141 23.4375C115.141 22.7734 115.266 22.1836 115.516 21.668C115.766 21.1523 116.133 20.7188 116.617 20.3672C117.109 20.0078 117.723 19.7383 118.457 19.5586C119.191 19.3711 120.043 19.2773 121.012 19.2773H122.969Z" fill="#1A202C"/>
</svg>
