<svg width="148" height="39" viewBox="0 0 148 39" fill="none" xmlns="http://www.w3.org/2000/svg">
<path d="M16.554 11.5434L12.0651 20.7692C11.6037 21.7187 10.6456 22.3277 9.58107 22.3277H0L5.83736 11.5255L16.554 11.5434L20.9187 2.62214C21.5042 1.42189 22.7107 0.669495 24.0237 0.669495H43.1858L37.3484 11.5434H16.554ZM26.9512 27.702L32.7886 16.8281H24.0237C22.7107 16.8281 21.5042 17.5805 20.9187 18.7807L16.554 27.702H5.83736L0 38.5042H9.59882C10.6456 38.5042 11.6215 37.8952 12.0828 36.9457L16.554 27.7199L26.9512 27.702Z" fill="#F6AD55"/>
<path d="M52.5264 7.65588H65.5141L64.7156 11.3641H54.9749L53.999 16.0039H62.5155L61.7881 19.4255H53.3071L51.5505 27.7198H47.1858L51.1424 8.80239C51.2666 8.12165 51.8522 7.65588 52.5264 7.65588Z" fill="#EDF2F7"/>
<path d="M65.9044 13.1915H69.8787L66.827 27.7199H62.8526L65.9044 13.1915ZM70.3223 10.9343H66.3479L66.827 8.76672C66.9689 8.10389 67.5544 7.63812 68.2109 7.63812H71.0497L70.3223 10.9343Z" fill="#EDF2F7"/>
<path d="M73.8531 13.1915H76.479L76.0355 15.2158H76.0887C77.3662 13.6215 79.0695 12.7974 81.1276 12.7974C83.86 12.7974 85.3327 14.1768 85.3327 16.7027C85.3327 17.2939 85.031 18.6912 84.9068 19.2107L83.1326 27.7199H79.1759L80.9325 19.2107C81.0389 18.7808 81.1809 17.8313 81.1809 17.4372C81.1809 16.5594 80.205 15.9503 79.2824 15.9503C76.8871 15.9503 75.6629 17.9746 75.2548 19.9989L73.6402 27.7199H69.6836L72.4514 14.338C72.5934 13.6573 73.1789 13.1915 73.8531 13.1915Z" fill="#EDF2F7"/>
<path d="M91.6668 7.65601H104.654L103.856 11.3642H94.1153L93.1395 16.004H101.656L100.929 19.4256H92.4475L90.691 27.7199H86.3085L90.2651 8.80251C90.4071 8.12177 90.9926 7.65601 91.6668 7.65601Z" fill="#EDF2F7"/>
<path d="M107.351 7.65601H110.155L105.932 27.7199H101.975L105.967 8.80251C106.109 8.12177 106.677 7.65601 107.351 7.65601Z" fill="#EDF2F7"/>
<path d="M117.536 12.7974C121.492 12.7974 124.242 14.768 124.242 18.942C124.242 24.0475 121.102 28.0961 115.868 28.0961C111.858 28.0961 109.268 25.9823 109.268 21.8262C109.268 16.9177 112.426 12.7974 117.536 12.7974ZM116.063 25.0866C119.008 25.0866 120.286 21.4321 120.286 18.9957C120.286 17.061 119.452 15.7891 117.394 15.7891C114.502 15.7891 113.224 19.3898 113.224 21.8262C113.224 23.5459 114.2 25.0866 116.063 25.0866Z" fill="#EDF2F7"/>
<path d="M140.459 27.702H136.343L135.846 17.5088H135.793L131.34 27.702H127.188L125.609 13.1736H128.306C129.051 13.1736 129.69 13.7648 129.725 14.5351L130.204 23.4026H130.257L134.675 13.1736H138.685L139.129 23.313H139.182L143.422 13.9977C143.653 13.4961 144.15 13.1557 144.718 13.1557H147.982L140.459 27.702Z" fill="#EDF2F7"/>
</svg>
